<mxfile host="app.diagrams.net" modified="2024-05-09T12:13:57.382Z" agent="Mozilla/5.0 (Macintosh; Intel Mac OS X 10_15_7) AppleWebKit/537.36 (KHTML, like Gecko) Chrome/124.0.0.0 Safari/537.36" version="24.3.1" etag="lSrpWwbx5sf-soRT-HfQ" type="github">
  <diagram name="Page-1" id="2m4p-NGxySRV5O7pbfLp">
    <mxGraphModel>
      <root>
        <mxCell id="0" />
        <mxCell id="1" parent="0" />
      </root>
    </mxGraphModel>
  </diagram>
</mxfile>
